<svg width="296" height="296" viewBox="0 0 296 296" fill="none" xmlns="http://www.w3.org/2000/svg">
<g clip-path="url(#clip0_2340_76)">
<path d="M148 296C187.252 296 224.896 280.407 252.652 252.652C280.407 224.896 296 187.252 296 148C296 108.748 280.407 71.1036 252.652 43.3482C224.896 15.5928 187.252 0 148 0C108.748 0 71.1036 15.5928 43.3482 43.3482C15.5928 71.1036 0 108.748 0 148C0 187.252 15.5928 224.896 43.3482 252.652C71.1036 280.407 108.748 296 148 296ZM213.328 120.828L139.328 194.828C133.894 200.262 125.106 200.262 119.73 194.828L82.7297 157.828C77.2953 152.394 77.2953 143.606 82.7297 138.23C88.1641 132.853 96.9516 132.795 102.328 138.23L129.5 165.402L193.672 101.172C199.106 95.7375 207.894 95.7375 213.27 101.172C218.647 106.606 218.705 115.394 213.27 120.77L213.328 120.828Z" fill="#10412E"/>
</g>
<defs>
<clipPath id="clip0_2340_76">
<rect width="296" height="296" fill="white"/>
</clipPath>
</defs>
</svg>
